<?xml version="1.0" encoding="UTF-8" standalone="no"?>
<!-- Created with Inkscape (http://www.inkscape.org/) -->

<svg
   xmlns:dc="http://purl.org/dc/elements/1.1/"
   xmlns:cc="http://creativecommons.org/ns#"
   xmlns:rdf="http://www.w3.org/1999/02/22-rdf-syntax-ns#"
   xmlns:svg="http://www.w3.org/2000/svg"
   xmlns="http://www.w3.org/2000/svg"
   xmlns:sodipodi="http://sodipodi.sourceforge.net/DTD/sodipodi-0.dtd"
   xmlns:inkscape="http://www.inkscape.org/namespaces/inkscape"
   width="482.67563"
   height="107.62191"
   id="svg2"
   version="1.1"
   inkscape:version="0.48.4 r9939"
   sodipodi:docname="strix-logo-long.svg">
  <defs
     id="defs4" />
  <sodipodi:namedview
     id="base"
     pagecolor="#ffffff"
     bordercolor="#666666"
     borderopacity="1.0"
     inkscape:pageopacity="0.0"
     inkscape:pageshadow="2"
     inkscape:zoom="7.9195959"
     inkscape:cx="320.12294"
     inkscape:cy="76.076261"
     inkscape:document-units="px"
     inkscape:current-layer="layer1-3"
     showgrid="false"
     fit-margin-top="0"
     fit-margin-left="0"
     fit-margin-right="0"
     fit-margin-bottom="0"
     inkscape:window-width="1877"
     inkscape:window-height="1056"
     inkscape:window-x="43"
     inkscape:window-y="24"
     inkscape:window-maximized="1" />
  <metadata
     id="metadata7">
    <rdf:RDF>
      <cc:Work
         rdf:about="">
        <dc:format>image/svg+xml</dc:format>
        <dc:type
           rdf:resource="http://purl.org/dc/dcmitype/StillImage" />
        <dc:title></dc:title>
      </cc:Work>
    </rdf:RDF>
  </metadata>
  <g
     inkscape:label="Layer 1"
     inkscape:groupmode="layer"
     id="layer1"
     transform="translate(-28.220679,-475.00259)">
    <g
       transform="translate(-13.73561,254.05329)"
       id="layer1-3"
       inkscape:label="Layer 1"
       style="fill:#ffffff">
      <text
         transform="translate(213.9287,234.50076)"
         sodipodi:linespacing="125%"
         id="text3261"
         y="58.926434"
         x="179.28571"
         style="font-size:40px;font-style:normal;font-weight:normal;line-height:125%;letter-spacing:0px;word-spacing:0px;fill:#ffffff;fill-opacity:1;stroke:none;font-family:Sans"
         xml:space="preserve"><tspan
           y="58.926434"
           x="179.28571"
           id="tspan3263"
           sodipodi:role="line" /></text>
      <g
         id="text3518"
         style="font-size:40px;font-style:normal;font-weight:normal;line-height:125%;letter-spacing:0px;word-spacing:0px;fill:#ffffff;fill-opacity:1;stroke:none;font-family:Sans">
        <path
           id="path3564"
           style="font-size:40px;line-height:125%;font-family:Orbitron;-inkscape-font-specification:Orbitron Bold;fill:#ffffff"
           d="m 281.63929,254.43752 0,2.2 -5.32,0 0,-2.2 c -3e-5,-0.18664 -0.08,-0.27998 -0.24,-0.28 l -17.68,0 c -0.18668,2e-5 -0.28001,0.0934 -0.28,0.28 l 0,5.92 c -10e-6,0.18668 0.0933,0.28002 0.28,0.28 l 17.68,0 c 1.51997,2e-5 2.82663,0.54668 3.92,1.64 1.0933,1.06668 1.63997,2.37335 1.64,3.92 l 0,5.92 c -3e-5,1.54667 -0.5467,2.86667 -1.64,3.96 -1.09337,1.06667 -2.40003,1.6 -3.92,1.6 l -17.68,0 c -1.54668,0 -2.86668,-0.53333 -3.96,-1.6 -1.06667,-1.09333 -1.60001,-2.41333 -1.6,-3.96 l 0,-2.2 5.28,0 0,2.2 c -10e-6,0.18667 0.0933,0.28001 0.28,0.28 l 17.68,0 c 0.15997,1e-5 0.23997,-0.0933 0.24,-0.28 l 0,-5.92 c -3e-5,-0.18665 -0.08,-0.27999 -0.24,-0.28 l -17.68,0 c -1.54668,10e-6 -2.86668,-0.53332 -3.96,-1.6 -1.06667,-1.09332 -1.60001,-2.41332 -1.6,-3.96 l 0,-5.92 c -1e-5,-1.54664 0.53333,-2.85331 1.6,-3.92 1.09332,-1.0933 2.41332,-1.63997 3.96,-1.64 l 17.68,0 c 1.51997,3e-5 2.82663,0.5467 3.92,1.64 1.0933,1.06669 1.63997,2.37336 1.64,3.92"
           inkscape:connector-curvature="0" />
        <path
           id="path3566"
           style="font-size:30px;font-variant:normal;font-weight:bold;font-stretch:normal;text-align:start;line-height:125%;writing-mode:lr-tb;text-anchor:start;font-family:Orbitron;-inkscape-font-specification:Orbitron Bold;fill:#ffffff"
           d="m 284.28991,256.07752 21.6,0 0,3.96 -8.79,0 0,17.64 -3.99,0 0,-17.64 -8.82,0 0,-3.96"
           inkscape:connector-curvature="0" />
        <path
           id="path3568"
           style="font-size:30px;font-variant:normal;font-weight:bold;font-stretch:normal;text-align:start;line-height:125%;writing-mode:lr-tb;text-anchor:start;font-family:Orbitron;-inkscape-font-specification:Orbitron Bold;fill:#ffffff"
           d="m 329.73288,260.27752 0,5.82 c -2e-5,1.14001 -0.41002,2.12001 -1.23,2.94 -0.82002,0.82001 -1.81002,1.23001 -2.97,1.23 l -1.17,0 5.37,6.39 0,1.02 -4.32,0 -6.24,-7.41 -6.99,0 -0.09,0 0,7.41 -3.96,0 0,-21.57 17.4,0 c 1.15998,2e-5 2.14998,0.41002 2.97,1.23 0.81998,0.82002 1.22998,1.80002 1.23,2.94 m -17.43,6.03 13.23,0 c 0.13998,10e-6 0.20998,-0.07 0.21,-0.21 l 0,-5.82 c -2e-5,-0.13998 -0.07,-0.20998 -0.21,-0.21 l -13.23,0 c -0.14001,2e-5 -0.21001,0.07 -0.21,0.21 l 0,5.82 c -10e-6,0.14001 0.07,0.21001 0.21,0.21"
           inkscape:connector-curvature="0" />
        <path
           id="path3570"
           style="font-size:30px;font-variant:normal;font-weight:bold;font-stretch:normal;text-align:start;line-height:125%;writing-mode:lr-tb;text-anchor:start;font-family:Orbitron;-inkscape-font-specification:Orbitron Bold;fill:#ffffff"
           d="m 332.91944,277.67752 0,-21.6 3.96,0 0,21.6 -3.96,0"
           inkscape:connector-curvature="0" />
        <path
           id="path3572"
           style="font-size:30px;font-variant:normal;font-weight:bold;font-stretch:normal;text-align:start;line-height:125%;writing-mode:lr-tb;text-anchor:start;font-family:Orbitron;-inkscape-font-specification:Orbitron Bold;fill:#ffffff"
           d="m 356.46054,256.07752 4.35,0 0,1.05 -8.22,9.75 8.22,9.75 0,1.05 -4.35,0 -6.45,-7.65 -6.45,7.65 -4.35,0 0,-1.05 8.19,-9.75 -8.19,-9.75 0,-1.05 4.35,0 6.45,7.65 6.45,-7.65"
           inkscape:connector-curvature="0" />
      </g>
      <path
         inkscape:connector-curvature="0"
         id="path3524"
         d="m 373.5328,241.36954 0,73.87871"
         style="fill:#ffffff;stroke:#ffffff;stroke-width:1.91750729000000009px;stroke-linecap:butt;stroke-linejoin:miter;stroke-opacity:1" />
      <g
         id="text3528"
         style="font-size:40px;font-style:normal;font-weight:normal;line-height:120.00000477000000387%;letter-spacing:0px;word-spacing:0px;fill:#ffffff;fill-opacity:1;stroke:none;font-family:Sans">
        <path
           id="path3549"
           style="font-size:40px;line-height:120.00000477000000387%;font-family:Orbitron;-inkscape-font-specification:Orbitron Bold;fill:#ffffff"
           d="m 385.40927,310.25497 0,-28.8 5.28,0 0,28.8 -5.28,0"
           inkscape:connector-curvature="0" />
        <path
           id="path3551"
           style="font-size:30px;font-variant:normal;font-weight:bold;font-stretch:normal;text-align:start;line-height:120.00000477000000387%;writing-mode:lr-tb;text-anchor:start;font-family:Orbitron;-inkscape-font-specification:Orbitron Bold;fill:#ffffff"
           d="m 405.8174,298.01497 7.83,-9.36 4.35,0 0,21.6 -3.99,0 0,-15.84 -8.19,9.75 -8.22,-9.75 0,15.84 -3.96,0 0,-21.6 4.32,0 7.86,9.36"
           inkscape:connector-curvature="0" />
        <path
           id="path3553"
           style="font-size:30px;font-variant:normal;font-weight:bold;font-stretch:normal;text-align:start;line-height:120.00000477000000387%;writing-mode:lr-tb;text-anchor:start;font-family:Orbitron;-inkscape-font-specification:Orbitron Bold;fill:#ffffff"
           d="m 425.69943,288.65497 13.23,0 c 1.15998,3e-5 2.14998,0.41003 2.97,1.23 0.81998,0.80002 1.22998,1.78002 1.23,2.94 l 0,17.43 -3.99,0 0,-7.26 -13.65,0 0,7.26 -3.96,0 0,-17.43 c 0,-1.15998 0.4,-2.13998 1.2,-2.94 0.81999,-0.81997 1.80999,-1.22997 2.97,-1.23 m -0.21,10.38 13.65,0 0,-6.21 c -2e-5,-0.13998 -0.07,-0.20998 -0.21,-0.21 l -13.23,0 c -0.14001,2e-5 -0.21001,0.07 -0.21,0.21 l 0,6.21"
           inkscape:connector-curvature="0" />
        <path
           id="path3555"
           style="font-size:30px;font-variant:normal;font-weight:bold;font-stretch:normal;text-align:start;line-height:120.00000477000000387%;writing-mode:lr-tb;text-anchor:start;font-family:Orbitron;-inkscape-font-specification:Orbitron Bold;fill:#ffffff"
           d="m 468.14755,292.82497 0,1.68 -3.99,0 0,-1.68 c -2e-5,-0.13998 -0.07,-0.20998 -0.21,-0.21 l -13.23,0 c -0.14,2e-5 -0.21,0.07 -0.21,0.21 l 0,13.26 c 0,0.14001 0.07,0.21001 0.21,0.21 l 13.23,0 c 0.13998,1e-5 0.20998,-0.07 0.21,-0.21 l 0,-4.08 -4.89,0 0,-3.96 8.88,0 0,8.04 c -2e-5,1.16001 -0.41002,2.15001 -1.23,2.97 -0.82002,0.8 -1.81002,1.2 -2.97,1.2 l -13.23,0 c -1.16,0 -2.15,-0.4 -2.97,-1.2 -0.8,-0.81999 -1.2,-1.80999 -1.2,-2.97 l 0,-13.26 c 0,-1.15998 0.4,-2.13998 1.2,-2.94 0.82,-0.81997 1.81,-1.22997 2.97,-1.23 l 13.23,0 c 1.15998,3e-5 2.14998,0.41003 2.97,1.23 0.81998,0.80002 1.22998,1.78002 1.23,2.94"
           inkscape:connector-curvature="0" />
        <path
           id="path3557"
           style="font-size:30px;font-variant:normal;font-weight:bold;font-stretch:normal;text-align:start;line-height:120.00000477000000387%;writing-mode:lr-tb;text-anchor:start;font-family:Orbitron;-inkscape-font-specification:Orbitron Bold;fill:#ffffff"
           d="m 471.4799,310.25497 0,-21.6 3.96,0 0,21.6 -3.96,0"
           inkscape:connector-curvature="0" />
        <path
           id="path3559"
           style="font-size:30px;font-variant:normal;font-weight:bold;font-stretch:normal;text-align:start;line-height:120.00000477000000387%;writing-mode:lr-tb;text-anchor:start;font-family:Orbitron;-inkscape-font-specification:Orbitron Bold;fill:#ffffff"
           d="m 495.68099,304.49497 0,-15.84 3.99,0 0,21.6 -4.32,0 -13.32,-15.84 0,15.84 -3.96,0 0,-21.6 4.32,0 13.29,15.84"
           inkscape:connector-curvature="0" />
        <path
           id="path3561"
           style="font-size:30px;font-variant:normal;font-weight:bold;font-stretch:normal;text-align:start;line-height:120.00000477000000387%;writing-mode:lr-tb;text-anchor:start;font-family:Orbitron;-inkscape-font-specification:Orbitron Bold;fill:#ffffff"
           d="m 524.63193,292.82497 0,1.68 -3.99,0 0,-1.68 c -2e-5,-0.13998 -0.07,-0.20998 -0.21,-0.21 l -13.23,0 c -0.14001,2e-5 -0.21001,0.07 -0.21,0.21 l 0,13.26 c -1e-5,0.14001 0.07,0.21001 0.21,0.21 l 13.23,0 c 0.13998,1e-5 0.20998,-0.07 0.21,-0.21 l 0,-4.08 -4.89,0 0,-3.96 8.88,0 0,8.04 c -2e-5,1.16001 -0.41002,2.15001 -1.23,2.97 -0.82002,0.8 -1.81002,1.2 -2.97,1.2 l -13.23,0 c -1.16001,0 -2.15,-0.4 -2.97,-1.2 -0.8,-0.81999 -1.2,-1.80999 -1.2,-2.97 l 0,-13.26 c 0,-1.15998 0.4,-2.13998 1.2,-2.94 0.82,-0.81997 1.80999,-1.22997 2.97,-1.23 l 13.23,0 c 1.15998,3e-5 2.14998,0.41003 2.97,1.23 0.81998,0.80002 1.22998,1.78002 1.23,2.94"
           inkscape:connector-curvature="0" />
      </g>
    </g>
    <g
       transform="matrix(1.1225057,0,0,1.0944282,-331.89657,92.276592)"
       id="layer1-9"
       inkscape:label="Layer 1"
       style="fill:#ffffff">
      <path
         transform="translate(320.46462,314.29598)"
         inkscape:connector-curvature="0"
         id="path2985"
         d="m 106.34287,79.33831 c -0.15467,-0.487344 0.38526,-3.081646 0.97327,-4.676428 0.60351,-1.636791 1.1952,-2.841436 2.05864,-4.191197 0.67968,-1.062521 0.7767,-1.520493 0.32212,-1.520493 -0.16327,0 -1.2989,0.325999 -2.52361,0.724441 -4.09533,1.332354 -5.81096,1.342611 -6.14697,0.03676 -0.25686,-0.998275 -1.462648,-1.001113 -3.43225,-0.0081 -1.459602,0.735906 -2.787194,1.645445 -5.546743,3.800097 -3.846312,3.003194 -5.942903,4.37535 -6.685332,4.37535 -0.687414,0 -1.567187,-1.056309 -1.719332,-2.064336 -0.384659,-2.548552 1.420704,-6.566996 3.304539,-7.355375 0.349713,-0.146353 1.449063,-0.33135 2.443004,-0.411105 2.270752,-0.182209 3.10355,-0.496922 3.10355,-1.172825 0,-2.118943 -12.167086,-8.798593 -24.464286,-13.430731 C 64.037669,51.940751 54.983515,48.708427 51.935545,47.698876 43.401431,44.872201 39.572547,44.314736 31.084112,44.663022 21.59179,45.052499 11.34035,45.908404 7.4937564,46.632609 c -1.4311581,0.269447 -6.070933,1.497923 -6.0712004,1.607475 -5.406e-4,0.221472 5.9569893,2.04041 7.6719916,2.342394 2.2813524,0.401708 7.6460794,0.631695 19.9170654,0.853848 4.910715,0.0889 9.169429,0.234564 9.463811,0.32369 0.511038,0.154719 0.486814,0.171445 -0.535714,0.369928 -1.480425,0.287366 -4.622532,0.536406 -9.444202,0.748539 -4.424432,0.194657 -6.846498,0.485782 -9.716937,1.167948 -3.14811,0.748154 -5.7491,2.071384 -5.7491,2.9248 0,0.865245 1.371023,1.319893 5.982142,1.983751 1.964286,0.282796 3.8125,0.551121 4.107143,0.596278 1.004279,0.153918 -5.351356,-0.08774 -6.875,-0.261401 -5.685896,-0.648076 -5.887084,-1.841613 -0.824826,-4.893238 1.140475,-0.6875 2.073869,-1.310268 2.074208,-1.383928 3.4e-4,-0.07366 -1.089676,-0.133929 -2.422258,-0.133929 -2.889525,0 -5.570146,-0.358448 -8.782444,-1.174374 -3.6332762,-0.922854 -5.93753673,-1.983777 -5.93753673,-2.733749 0,-0.761207 1.97871573,-1.918939 4.55357143,-2.664261 6.8340573,-1.9782 16.5126513,-3.078757 27.4107143,-3.116885 9.613755,-0.03363 10.441327,0.120793 22.589285,4.215221 9.30474,3.136131 16.28,5.635415 21.785715,7.805974 4.14053,1.632351 11.65986,5.506817 14.955357,7.706008 1.343975,0.896877 1.5625,1.112632 1.5625,1.542687 0,0.667029 0.569107,1.169525 1.974007,1.742957 2.530035,1.032675 6.201851,1.880388 9.633131,2.224006 2.47932,0.248286 4.01229,0.132421 5.03723,-0.38072 1.2572,-0.629419 4.65182,-4.256027 7.9286,-8.470436 3.42985,-4.411265 6.31777,-7.761973 8.35418,-9.692925 2.18978,-2.076388 11.00293,-8.490088 11.28237,-8.210654 0.11678,0.116785 -1.10428,1.112154 -3.6738,2.994768 -4.49023,3.289847 -6.5055,5.132984 -10.34611,9.462383 -5.82604,6.567512 -11.14945,13.770548 -13.7285,18.575857 -1.08384,2.01942 -1.41629,2.882987 -1.74377,4.52947 -0.26195,1.317064 -0.58144,1.949721 -1.13392,2.245398 -0.27605,0.147736 -0.36586,0.119469 -0.44859,-0.141179 l 0,0 z M 88.743756,75.356332 c 1.281845,-0.724091 6.428571,-5.839009 6.428571,-6.388841 0,-0.212108 -0.100694,-0.424291 -0.223766,-0.471518 -0.478591,-0.183652 -6.517966,0.422303 -7.073819,0.709748 -1.932079,0.999116 -3.287899,3.988302 -2.501529,5.515139 0.701395,1.361847 1.738505,1.557381 3.370543,0.635472 z"
         style="fill:#ffffff" />
      <path
         transform="translate(320.46462,314.29598)"
         inkscape:connector-curvature="0"
         id="path2987"
         d="m 56.762685,66.501896 c -1.236892,-0.610954 -4.16507,-3.526816 -4.893716,-4.873132 -0.499224,-0.922415 -0.5287,-1.087341 -0.48469,-2.711983 0.04618,-1.704711 0.0389,-1.738906 -0.501048,-2.353872 -0.301349,-0.343218 -1.16717,-1.023535 -1.924048,-1.511817 -2.831119,-1.82643 -3.486748,-3.184935 -2.073561,-4.296548 0.599048,-0.471212 0.803966,-0.419007 1.022061,0.260381 0.248962,0.775541 0.552939,1.051313 1.966748,1.784261 2.251741,1.167348 2.520527,1.567243 2.784881,4.143308 0.323784,3.155191 0.864573,4.1119 4.0837,7.224452 1.546063,1.494877 2.206263,2.344874 1.972406,2.53944 -0.352393,0.293187 -1.104658,0.21441 -1.952733,-0.20449 l 0,0 z"
         style="fill:#ffffff" />
      <path
         transform="translate(320.46462,314.29598)"
         inkscape:connector-curvature="0"
         id="path2989"
         d="m 42.759884,59.66168 c -0.05366,-0.08682 0.04532,-0.233285 0.219942,-0.325478 0.70663,-0.373063 3.324797,-1.09993 3.942791,-1.094616 0.625463,0.0054 0.641691,0.01984 0.30654,0.273161 -0.745077,0.563164 -4.27086,1.467972 -4.469273,1.146933 z"
         style="fill:#ffffff" />
      <path
         transform="translate(320.46462,314.29598)"
         inkscape:connector-curvature="0"
         id="path2991"
         d="m 42.672328,56.641498 c 0,-0.396448 1.750165,-0.493703 1.835908,-0.10202 0.0215,0.09821 -0.382783,0.20286 -0.898408,0.232547 -0.560867,0.03229 -0.9375,-0.02015 -0.9375,-0.130527 z"
         style="fill:#ffffff" />
      <path
         transform="translate(320.46462,314.29598)"
         inkscape:connector-curvature="0"
         id="path2993"
         d="m 39.195033,55.743752 c -0.12264,-0.198436 0.419715,-0.582898 1.398381,-0.991281 0.739181,-0.308449 0.934972,-0.264801 0.767685,0.171141 -0.245,0.63846 -1.892762,1.262354 -2.166066,0.82014 z"
         style="fill:#ffffff" />
      <path
         transform="translate(320.46462,314.29598)"
         inkscape:connector-curvature="0"
         id="path2995"
         d="m 29.854682,59.099484 c -0.911312,-0.305617 -1.62093,-0.591668 -1.576929,-0.635669 0.044,-0.044 0.789619,0.007 1.656931,0.113399 1.987204,0.243719 3.397708,0.248035 3.544298,0.01085 0.0624,-0.100958 -0.07349,-0.336995 -0.301961,-0.524527 -0.542355,-0.445165 -0.294773,-0.895844 0.673444,-1.225884 0.987567,-0.336635 4.199921,-0.195508 5.2132,0.229031 0.421485,0.176591 0.727965,0.359448 0.681066,0.406347 -0.0469,0.0469 -0.921232,-0.0169 -1.942962,-0.14177 -1.02173,-0.124873 -2.003916,-0.17093 -2.182635,-0.102349 -0.297991,0.11435 -0.285562,0.165798 0.149839,0.620259 0.261131,0.272562 0.474783,0.58497 0.474783,0.694241 0,0.203402 -0.960054,0.605253 -2.232143,0.93431 -1.218643,0.315232 -2.413206,0.20654 -4.156931,-0.378235 z"
         style="fill:#ffffff" />
      <path
         transform="translate(320.46462,314.29598)"
         inkscape:connector-curvature="0"
         id="path2997"
         d="m 31.989507,63.553086 c -0.590363,-0.590363 0.191834,-1.4586 2.094715,-2.325128 2.357926,-1.073744 4.878752,-1.471518 5.918402,-0.933894 0.685089,0.354273 0.67088,0.515292 -0.03305,0.374507 -0.834999,-0.167 -1.725838,0.144063 -3.01554,1.052963 -1.088268,0.766943 -1.220103,0.813164 -2.228137,0.78117 -1.293839,-0.04107 -1.822008,0.106354 -1.962067,0.54764 -0.16384,0.516215 -0.525826,0.751241 -0.774325,0.502742 z"
         style="fill:#ffffff" />
      <path
         transform="translate(320.46462,314.29598)"
         inkscape:connector-curvature="0"
         id="path2999"
         d="m 16.25323,66.372321 c -0.445422,-0.5367 0.760924,-1.778875 2.52951,-2.604636 2.007629,-0.937372 2.057426,-0.563122 0.09494,0.713562 -0.957589,0.622956 -1.741072,1.210792 -1.741072,1.306304 0,0.09786 0.253308,0.128998 0.580358,0.07134 4.1713,-0.735405 6.090657,-1.006531 7.8125,-1.103587 1.129464,-0.06366 2.278443,-0.201862 2.553286,-0.307105 0.42681,-0.163435 0.483903,-0.263346 0.391331,-0.684822 -0.125492,-0.571364 0.108779,-0.785139 0.698278,-0.637184 0.843385,0.211677 1.701918,1.482674 1.207796,1.788058 -0.08212,0.05075 -1.508459,0.221027 -3.169643,0.378387 -1.661184,0.157361 -4.398883,0.522364 -6.083775,0.811119 -3.431699,0.588119 -4.556849,0.650123 -4.873514,0.268565 l 0,0 z"
         style="fill:#ffffff" />
      <path
         transform="translate(320.46462,314.29598)"
         inkscape:connector-curvature="0"
         id="path3001"
         d="m 22.758227,62.346792 c 0.530534,-0.586234 2.400889,-1.179132 3.451425,-1.094093 0.491703,0.0398 -0.0219,0.366187 -1.410873,0.896586 -0.793474,0.302999 -1.649161,0.550907 -1.901527,0.550907 -0.445918,0 -0.449836,-0.01 -0.139025,-0.3534 z"
         style="fill:#ffffff" />
      <path
         transform="translate(320.46462,314.29598)"
         inkscape:connector-curvature="0"
         id="path3003"
         d=""
         style="fill:#ffffff" />
      <path
         transform="translate(320.46462,314.29598)"
         inkscape:connector-curvature="0"
         id="path3005"
         d="m 17.871857,70.924166 -1.854043,-0.09897 3.028622,-1.559562 c 2.856235,-1.470793 4.490613,-2.188812 4.640673,-2.038752 0.03642,0.03642 -0.634606,0.539508 -1.491164,1.117979 -0.856557,0.57847 -1.58521,1.141979 -1.619228,1.252242 -0.118415,0.383819 0.710267,0.392951 5.272775,0.05811 5.775015,-0.423831 5.859267,-0.425141 5.578432,-0.08676 -0.314835,0.379354 -2.033198,0.989036 -3.577025,1.269144 -1.361897,0.247099 -6.187706,0.288965 -9.979042,0.08657 z"
         style="fill:#ffffff" />
      <path
         transform="translate(320.46462,314.29598)"
         inkscape:connector-curvature="0"
         id="path3007"
         d=""
         style="fill:#ffffff" />
      <path
         transform="translate(320.46462,314.29598)"
         inkscape:connector-curvature="0"
         id="path3009"
         d="m 33.565185,68.71438 c 0,-0.332604 5.203656,-3.096629 6.428571,-3.414663 0.407901,-0.105907 0.392749,-0.0687 -0.175573,0.431125 -0.98488,0.866178 -6.252998,3.379793 -6.252998,2.983538 z"
         style="fill:#ffffff" />
      <path
         transform="translate(320.46462,314.29598)"
         inkscape:connector-curvature="0"
         id="path3011"
         d="m 20.387143,78.403188 c -1.133999,-0.350251 -0.920572,-0.992136 0.952772,-2.86548 1.341173,-1.341174 1.737919,-1.496348 0.760401,-0.297408 -1.27929,1.569071 -1.33206,2.007812 -0.276203,2.296453 0.841443,0.230027 4.283564,0.113387 5.276049,-0.178784 0.323701,-0.09529 0.817995,-0.418883 1.09843,-0.719089 0.286517,-0.306718 0.693621,-0.546677 0.929309,-0.547763 0.654391,-0.003 1.856506,-0.421352 3.990855,-1.388818 2.142586,-0.971199 3.252189,-1.336856 3.388324,-1.116585 0.245096,0.396574 -3.853545,2.466962 -6.870467,3.470548 -3.435661,1.142881 -7.835623,1.783612 -9.24947,1.346926 z"
         style="fill:#ffffff" />
      <path
         transform="translate(320.46462,314.29598)"
         inkscape:connector-curvature="0"
         id="path3013"
         d="m 50.553406,96.568319 c -0.116968,-0.140939 -0.322414,-0.832218 -0.456548,-1.536175 -0.280372,-1.471446 -0.60575,-1.920341 -1.511546,-2.085341 -1.014734,-0.184845 -1.629249,-0.737289 -2.186017,-1.965216 -0.562866,-1.241373 -1.475076,-2.031395 -2.345583,-2.031395 -0.775047,0 -1.723374,-0.472607 -1.904556,-0.949151 -0.09007,-0.236892 -0.297019,-0.481849 -0.459897,-0.544351 -0.456411,-0.175142 -1.969432,-0.138436 -3.840735,0.09318 -2.146029,0.265614 -2.548594,0.163226 -3.245476,-0.825447 -0.732422,-1.039095 -2.101276,-1.702199 -4.958004,-2.401768 -2.587375,-0.633608 -3.874327,-1.21126 -4.639074,-2.082259 -0.741129,-0.844099 -0.740241,-1.611623 0.0027,-2.319291 l 0.55061,-0.52448 -0.110049,0.625 c -0.168771,0.958491 0.350554,1.628227 1.840573,2.373653 0.689557,0.344971 2.001917,0.803929 2.916355,1.019907 3.543286,0.836875 4.154289,0.495009 11.573329,-6.475456 1.620536,-1.522554 2.982427,-2.735188 3.026425,-2.694743 0.044,0.04045 -0.603192,0.774146 -1.438201,1.630445 -4.922518,5.048025 -7.838223,8.685171 -7.838223,9.777655 0,1.089764 1.976648,1.504432 3.599386,0.755093 1.257233,-0.580558 1.836598,-1.1964 2.653042,-2.820079 0.847148,-1.684741 2.304775,-3.653615 4.491223,-6.066475 2.277411,-2.513243 6.080059,-5.914385 6.331479,-5.662965 0.0519,0.05191 -1.443588,1.681572 -3.32332,3.62148 -5.25585,5.424109 -5.909366,6.412717 -6.037687,9.133533 -0.08813,1.868559 0.03482,2.774243 0.430293,3.169714 0.570907,0.570908 1.354462,-0.491014 1.840169,-2.493905 0.603089,-2.486937 3.987818,-7.121454 8.485622,-11.618885 2.116707,-2.116532 4.146198,-3.770662 4.361792,-3.555068 0.04612,0.04612 -1.7261,1.871977 -3.938255,4.057471 -4.150852,4.100824 -5.246807,5.43623 -6.325364,7.707362 -1.092909,2.301357 -1.388011,4.541409 -0.952152,7.227593 0.488343,3.009634 1.935339,3.468982 4.092334,1.299111 1.309171,-1.316988 2.122939,-2.485488 5.170739,-7.424727 2.675704,-4.336224 4.096252,-6.437541 4.24882,-6.284974 0.05104,0.05104 -1.17672,2.286399 -2.728357,4.96746 -5.094945,8.803507 -6.366095,11.545378 -6.399261,13.803228 -0.01652,1.124408 -0.05581,1.255352 -0.39113,1.303261 -0.205022,0.02929 -0.46847,-0.06205 -0.585438,-0.202991 z"
         style="fill:#ffffff" />
      <path
         transform="translate(320.46462,314.29598)"
         inkscape:connector-curvature="0"
         id="path3015"
         d="m 56.863146,98.34169 c -0.543882,-0.830067 -0.546165,-2.422616 -0.006,-4.198439 0.2515,-0.826853 0.420877,-1.539766 0.376392,-1.58425 -0.04448,-0.04448 -0.606807,0.337611 -1.249606,0.849102 -0.642799,0.511491 -1.168725,0.855161 -1.168725,0.763712 0,-0.09145 0.170313,-0.319349 0.378473,-0.506446 0.49818,-0.44777 3.029054,-3.837658 4.420794,-5.921273 0.607087,-0.908888 2.674666,-4.202019 4.594619,-7.318067 1.919953,-3.116048 3.854174,-6.174734 4.29827,-6.797078 1.68917,-2.36716 0.889035,-0.749716 -2.122228,4.290008 -3.836493,6.420849 -5.254532,8.992915 -6.507549,11.803523 -1.142701,2.563162 -1.368231,3.291844 -1.851015,5.980596 -0.199561,1.111407 -0.466921,2.275821 -0.594134,2.587584 l -0.231296,0.566843 -0.337973,-0.515815 0,0 z"
         style="fill:#ffffff" />
      <path
         transform="translate(320.46462,314.29598)"
         inkscape:connector-curvature="0"
         id="path3017"
         d="m 61.491181,101.1955 c -1.17291,-0.78988 -1.520562,-1.516574 -1.526591,-3.191004 -0.01087,-3.020684 1.812299,-7.45298 5.372906,-13.061997 3.224632,-5.079756 5.361797,-7.381945 5.797869,-6.245559 0.39631,1.032767 -0.0058,3.189615 -1.761853,9.449681 -0.716309,2.553571 -1.472468,5.4286 -1.680354,6.388953 -0.458846,2.1197 -0.503867,4.087834 -0.101154,4.422056 0.22686,0.188277 0.321717,0.184166 0.52559,-0.02278 0.268245,-0.272286 0.988362,-2.62355 1.335225,-4.359661 1.028302,-5.146844 2.626235,-9.638221 5.801945,-16.307763 0.856894,-1.799627 1.530411,-3.293063 1.496705,-3.318747 -0.03371,-0.02568 -0.701305,-0.63403 -1.483553,-1.35188 -1.648747,-1.513016 -2.989827,-2.212848 -4.800792,-2.505255 -4.044059,-0.652973 -5.645612,-1.202812 -7.904792,-2.713844 -1.504301,-1.006138 -2.188942,-1.81767 -1.909596,-2.26352 0.328382,-0.524116 0.884103,-0.408902 2.757323,0.571655 2.246157,1.175773 4.624889,2.080439 7.630135,2.901848 3.132858,0.856289 4.030999,1.16857 3.789731,1.317682 -0.483975,0.299113 0.177484,0.818151 2.419912,1.898874 1.727612,0.832611 2.386776,1.237354 2.386776,1.465539 0,0.173386 -0.474859,0.733236 -1.055243,1.244111 -0.580384,0.510875 -1.435541,1.500914 -1.900351,2.200087 -2.561566,3.853146 -5.739517,13.063795 -6.094158,17.66269 -0.177138,2.297073 0.496175,3.573523 1.884992,3.573523 0.481777,0 0.756893,-0.151352 1.285837,-0.707387 0.563086,-0.591927 0.719717,-0.934398 0.959622,-2.098215 0.648418,-3.145567 2.321783,-8.052128 3.702096,-10.855112 1.440989,-2.926195 1.395239,-2.121276 -0.131947,2.321429 -1.374585,3.998785 -1.961451,6.216817 -2.250574,8.505941 -0.242115,1.916951 -0.135056,2.654773 0.385213,2.654773 0.597484,0 1.104674,-1.289764 2.756817,-7.010491 0.757412,-2.622623 1.721944,-5.132366 1.972446,-5.132366 0.159545,0 -0.05529,1.085953 -0.653548,3.303571 -0.689557,2.556047 -0.8595,5.369063 -0.424611,7.028504 0.278184,1.061491 0.278066,1.15725 -0.0018,1.466491 -0.686462,0.758534 -4.122052,1.298589 -8.113367,1.275377 -3.348961,-0.01948 -3.916628,0.08578 -7.031865,1.303866 -1.126389,0.44042 -2.155637,0.80077 -2.287227,0.80077 -0.131591,0 -0.648091,-0.27533 -1.147778,-0.61184 l 0,0 z m 3.392775,-1.01108 c 0.726446,-0.571417 1.011714,-1.293883 1.287852,-3.261597 0.298335,-2.12589 1.094478,-5.225497 2.483523,-9.669059 1.104353,-3.532831 2.051481,-7.097182 2.05223,-7.723214 0.0013,-1.092812 -1.108305,0.04819 -3.256113,3.348214 -2.498213,3.83841 -5.034554,8.610412 -5.875306,11.054102 -0.658028,1.912591 -0.353721,4.840391 0.61115,5.879985 0.75995,0.818799 1.924166,0.979219 2.696664,0.371569 z"
         style="fill:#ffffff" />
      <path
         transform="translate(320.46462,314.29598)"
         inkscape:connector-curvature="0"
         id="path3019"
         d="m 83.006693,96.868586 c -0.510925,-0.616855 -0.217493,-6.250739 0.374945,-7.198936 0.302107,-0.483523 0.411415,-0.0295 0.552441,2.294645 0.139134,2.292975 0.398282,3.259506 0.928496,3.462968 0.413182,0.158553 1.315211,-0.342981 1.829454,-1.017187 0.656528,-0.860753 0.78309,-0.674884 0.208304,0.305915 -1.091993,1.863344 -3.178011,3.016597 -3.89364,2.152595 z"
         style="fill:#ffffff" />
      <path
         transform="translate(320.46462,314.29598)"
         inkscape:connector-curvature="0"
         id="path3021"
         d="m 83.862804,84.366859 c -0.284519,-0.284519 -0.09308,-1.576763 0.355761,-2.401429 0.891994,-1.638889 1.495386,-0.896274 0.845855,1.041022 -0.384007,1.145341 -0.868343,1.693681 -1.201616,1.360407 l 0,0 z"
         style="fill:#ffffff" />
      <path
         transform="translate(320.46462,314.29598)"
         inkscape:connector-curvature="0"
         id="path3023"
         d="m 89.964317,78.8363 c -0.465397,-0.133078 -0.53202,-0.574649 -0.145082,-0.961586 0.452355,-0.452356 0.899513,-0.44725 1.489725,0.01701 0.504066,0.396498 0.627663,0.879896 0.224974,0.879896 -0.135044,0 -0.476562,0.03368 -0.758928,0.07484 -0.282366,0.04117 -0.647176,0.03659 -0.810689,-0.01017 z"
         style="fill:#ffffff" />
      <path
         transform="translate(320.46462,314.29598)"
         inkscape:connector-curvature="0"
         id="path3025"
         d="m 92.493756,83.778356 c 0,-0.08429 0.650603,-0.691515 1.445784,-1.349384 1.900301,-1.572157 1.969339,-1.753744 1.921719,-5.054547 -0.0233,-1.614717 0.0361,-2.760861 0.153993,-2.971523 0.178204,-0.318433 0.218847,-0.299013 0.568859,0.271821 0.510158,0.832015 0.738481,1.642682 0.85483,3.035104 0.109411,1.309383 -0.126749,1.953206 -1.2223,3.332249 -1.13266,1.425756 -3.722885,3.329543 -3.722885,2.73628 z"
         style="fill:#ffffff" />
      <path
         transform="translate(320.46462,314.29598)"
         inkscape:connector-curvature="0"
         id="path3027"
         d="m 101.53427,133.00477 c 0.1505,-1.09804 -0.14548,-1.86758 -1.45732,-3.78897 -1.484854,-2.17481 -1.860286,-2.94599 -2.070921,-4.25391 -0.219627,-1.36376 -0.798928,-2.17274 -1.762627,-2.46147 -0.712977,-0.21362 -0.898176,-0.17541 -3.124646,0.64462 -0.611678,0.22528 0.634704,-0.7496 1.517857,-1.18722 0.517983,-0.25668 1.163371,-0.40562 1.815954,-0.41909 0.55681,-0.0115 1.132415,-0.12052 1.279121,-0.24227 0.146707,-0.12176 0.318894,-0.63921 0.382638,-1.14989 0.310976,-2.49138 2.274204,-6.93058 4.630024,-10.46931 0.66459,-0.99829 2.1765,-2.86137 3.35979,-4.14017 1.18329,-1.27879 2.08047,-2.38739 1.99374,-2.46354 -0.0867,-0.0762 -1.16216,-0.84987 -2.38984,-1.71937 -2.60861,-1.847527 -4.41126,-3.522416 -5.997731,-5.57265 -3.331227,-4.305011 -4.744282,-8.617052 -2.823805,-8.617052 0.563844,0 0.884365,0.559224 1.121167,1.956137 0.525267,3.098588 3.462929,7.002477 7.807619,10.375613 3.59958,2.794642 6.73473,6.646482 8.63966,10.614682 0.90615,1.88761 1.51465,3.73161 2.1508,6.51785 0.93105,4.07784 2.85281,6.12353 4.52033,4.81186 0.63495,-0.49945 0.86768,-1.50368 0.86768,-3.744 0,-3.47426 -0.82996,-7.58876 -2.80888,-13.925 -2.67843,-8.575942 -3.45363,-12.258583 -3.26193,-15.495941 0.11341,-1.915081 0.56132,-2.846144 1.81464,-3.772027 0.54745,-0.404421 1.09666,-0.915376 1.22048,-1.135457 0.13539,-0.240654 0.2637,-1.396601 0.32191,-2.900145 0.0744,-1.920358 0.17303,-2.655262 0.42563,-3.169643 0.37166,-0.756841 0.72607,-0.862415 0.8992,-0.267857 0.0644,0.220982 0.19116,2.049107 0.2818,4.0625 0.23299,5.175432 0.49217,7.422347 1.27709,11.071428 1.15021,5.347252 2.43892,8.527742 4.2061,10.380442 1.08535,1.13787 1.10872,1.50916 0.0829,1.31672 -0.9997,-0.18755 -1.57612,-0.56089 -2.1382,-1.38489 -0.92872,-1.36149 -1.50853,-3.074022 -2.97753,-8.794415 -1.38743,-5.402754 -2.17053,-7.482677 -3.02904,-8.045194 -0.54044,-0.354107 -1.1001,-0.10925 -1.37299,0.600695 -0.2728,0.709714 -0.21416,3.347302 0.11452,5.150527 0.4358,2.39094 1.54896,6.548129 2.76596,10.329687 2.52917,7.85887 3.24659,10.68152 3.57255,14.0559 0.3237,3.35113 -0.3129,4.95116 -2.57091,6.46162 -0.88938,0.59494 -1.56664,0.57902 -2.76277,-0.065 -1.63924,-0.88254 -1.88547,-0.61176 -3.23746,3.56025 -1.84705,5.69966 -2.91672,6.65746 -4.6072,4.12531 -0.36544,-0.5474 -1.06176,-1.8591 -1.54737,-2.91491 -0.48562,-1.0558 -0.9271,-1.91683 -0.98107,-1.9134 -0.054,0.003 -0.94189,1.33402 -1.97314,2.95687 -1.93948,3.05209 -3.79389,5.65271 -4.10461,5.75629 -0.11135,0.0371 -0.1373,-0.23914 -0.0692,-0.73625 z m 2.43902,-3.88961 c 2.22074,-2.53863 3.93901,-7.49802 4.17147,-12.03997 0.11623,-2.27101 -0.10635,-3.35287 -0.73983,-3.59596 -1.06402,-0.4083 -1.70252,-4.5741 -0.95317,-6.21876 0.46093,-1.01163 0.77542,-0.34377 1.01646,2.15857 0.20849,2.16437 0.62715,3.14469 1.46819,3.43788 1.0194,0.35536 1.10612,0.0259 0.39944,-1.51771 -0.55867,-1.2203 -0.61496,-2.64138 -0.16184,-4.08545 0.51883,-1.65345 0.22465,-3.16742 -0.55717,-2.86741 -0.14269,0.0548 -0.33502,0.0996 -0.42739,0.0996 -0.0924,0 -0.5385,0.34151 -0.99139,0.75893 -3.565,3.28574 -8.275733,13.15035 -8.275733,17.32997 0,1.96664 1.347473,5.3548 2.691513,6.76767 0.90711,0.95357 1.36503,0.90945 2.35945,-0.22732 z m 8.18667,0.0582 c 0.66857,-0.73397 0.95249,-1.25428 1.47528,-2.70359 0.89612,-2.48425 1.18147,-4.22788 1.18677,-7.25177 0.008,-4.56872 -0.95202,-7.83556 -3.15678,-10.74215 -0.93543,-1.2332 -1.33941,-1.58397 -1.56473,-1.35864 -0.17924,0.17924 -0.11686,2.41432 0.088,3.15202 0.10599,0.38174 0.46928,0.97886 0.8073,1.32691 l 0.61459,0.63282 -0.64026,0.65569 c -1.93089,1.97742 -2.31852,9.91662 -0.71399,14.62369 0.50818,1.49081 0.88654,2.15609 1.22621,2.15609 0.12668,0 0.43162,-0.22098 0.67764,-0.49107 z"
         style="fill:#ffffff" />
      <path
         transform="translate(320.46462,314.29598)"
         inkscape:connector-curvature="0"
         id="path3029"
         d="m 87.192054,125.56494 c -0.727207,-0.44224 -0.948332,-0.86814 -0.948157,-1.82622 1.95e-4,-1.06726 0.693885,-2.45044 3.056703,-6.09491 2.494131,-3.84701 3.444829,-5.61041 3.820518,-7.08647 0.425487,-1.67173 1.068264,-2.75377 2.579776,-4.34276 1.209436,-1.27143 2.755408,-2.43279 2.962624,-2.22558 0.04521,0.0452 -0.330673,0.43034 -0.835296,0.85585 -0.504623,0.4255 -1.229465,1.25632 -1.61076,1.84625 -1.831426,2.83358 -1.88188,6.50587 -0.08699,6.33137 0.553035,-0.0538 0.560834,-0.0683 0.654096,-1.21513 0.05595,-0.68811 0.253413,-1.46195 0.484948,-1.90053 0.665674,-1.26094 2.4568,-3.50537 3.864524,-4.84257 1.23741,-1.17542 2.70079,-2.15393 2.90935,-1.94537 0.44742,0.44742 -3.04129,3.81761 -4.25237,4.1079 -1.276685,0.30602 -1.689393,3.82681 -0.454156,3.87439 0.454579,0.0175 -1.770815,1.7815 -3.12049,2.47351 -1.048822,0.53775 -1.64285,0.73267 -2.232939,0.73267 -0.742002,0 -0.884275,0.0803 -1.84587,1.0419 -1.193883,1.19388 -2.809384,3.586 -3.601321,5.33258 -0.704187,1.55305 -0.766744,3.16172 -0.142604,3.66712 0.219939,0.17809 0.529314,0.28777 0.6875,0.24372 0.158187,-0.044 0.568862,-0.13568 0.912612,-0.20363 l 0.625,-0.12353 -0.446429,0.34511 c -1.486009,1.14879 -2.255399,1.39516 -2.980273,0.95433 l 0,0 z"
         style="fill:#ffffff" />
      <path
         transform="translate(320.46462,314.29598)"
         inkscape:connector-curvature="0"
         id="path3031"
         d="m 79.322662,117.69794 c -0.505361,-0.2079 -0.836391,-0.90902 -0.695056,-1.47215 0.178576,-0.7115 1.412535,-2.38887 3.321105,-4.51451 2.898797,-3.22848 3.628421,-4.27986 3.535489,-5.09456 -0.03527,-0.30917 0.09796,-0.42937 0.67027,-0.60471 1.072252,-0.32851 3.013715,-1.35719 4.886023,-2.58886 0.919455,-0.60485 1.704625,-1.06683 1.744821,-1.02664 0.0402,0.0402 -0.912978,0.90794 -2.118165,1.92832 -4.467424,3.78238 -9.398108,8.89708 -10.321103,10.7063 -0.701377,1.37482 -0.380328,1.78525 1.148379,1.46813 0.500525,-0.10384 0.936796,-0.16408 0.969493,-0.13389 0.106805,0.0987 -1.917662,1.32422 -2.333187,1.41247 -0.222658,0.0473 -0.586289,0.0113 -0.808069,-0.0799 l 0,0 z"
         style="fill:#ffffff" />
      <path
         transform="translate(320.46462,314.29598)"
         inkscape:connector-curvature="0"
         id="path3033"
         d=""
         style="fill:#ffffff" />
      <path
         transform="translate(320.46462,314.29598)"
         inkscape:connector-curvature="0"
         id="path3035"
         d="m 84.379679,115.20713 c 0.68317,-0.68317 5.418561,-2.9606 5.850248,-2.81361 0.343329,0.11691 -1.798365,1.39207 -3.718314,2.21388 -1.74419,0.74657 -2.48803,0.95582 -2.131934,0.59973 z"
         style="fill:#ffffff" />
      <path
         transform="translate(320.46462,314.29598)"
         inkscape:connector-curvature="0"
         id="path3037"
         d="m 77.955482,108.35672 c -0.253949,-0.25395 -0.460941,-0.56582 -0.459982,-0.69305 0.0045,-0.59512 0.949463,-2.15692 1.849802,-3.05726 0.887105,-0.88711 3.475081,-2.79907 3.788731,-2.79907 0.06638,0 -0.715827,0.86584 -1.738238,1.9241 -1.812141,1.87568 -2.598832,3.02735 -2.407876,3.52497 0.148595,0.38723 1.333418,0.51825 2.791443,0.30868 0.736548,-0.10587 1.363477,-0.1682 1.393177,-0.1385 0.164591,0.1646 -2.872725,1.22115 -3.735332,1.29937 -0.922439,0.0836 -1.064162,0.0483 -1.481725,-0.36924 l 0,0 z"
         style="fill:#ffffff" />
      <path
         transform="translate(320.46462,314.29598)"
         inkscape:connector-curvature="0"
         id="path3039"
         d="m 138.74376,105.75887 c -0.24554,-0.0618 -0.71816,-0.26047 -1.05028,-0.44153 -0.33211,-0.18105 -1.37676,-0.4423 -2.32143,-0.58055 -0.94467,-0.13826 -2.05975,-0.37869 -2.47795,-0.5343 -0.95739,-0.35625 -2.07357,-1.28073 -2.97205,-2.46161 -2.36707,-3.1111 -5.35318,-12.806168 -5.56207,-18.058545 -0.0831,-2.090677 -0.0784,-2.125464 0.19543,-1.428571 0.15435,0.392857 0.68057,2.361607 1.16937,4.375 1.45883,6.009059 3.039,10.867996 4.32643,13.303571 0.76629,1.449685 2.39157,3.125005 3.03166,3.125005 0.40943,0 0.48231,-0.0757 0.48231,-0.50102 0,-0.27556 -0.2776,-1.18946 -0.61689,-2.03089 -0.98171,-2.434593 -5.63752,-18.573863 -5.63037,-19.517579 0.005,-0.598214 0.27506,-0.843373 0.93068,-0.843373 0.85591,0 1.63692,0.443436 2.09962,1.1921 0.21392,0.34613 0.50192,0.629329 0.64,0.629329 0.13808,0 0.45396,-0.321429 0.70196,-0.714286 0.248,-0.392857 0.51649,-0.714286 0.59663,-0.714286 0.25162,0 1.70354,1.024138 2.19768,1.550173 1.0186,1.084338 1.69493,2.378399 1.24305,2.378399 -0.0875,0 -0.54954,-0.28234 -1.02679,-0.627422 -1.53243,-1.108064 -1.93091,-1.335516 -2.34092,-1.336196 -0.62548,-0.0011 -0.50085,0.614134 0.30058,1.483573 0.86262,0.935841 2.05806,1.554579 3.12496,1.617427 0.4895,0.02884 0.95473,0.182557 1.18789,0.392509 1.44227,1.298682 6.72245,8.231059 8.34273,10.953214 1.18823,1.996295 2.15809,3.052608 2.80277,3.052608 0.68384,0 0.57205,-0.648337 -0.32484,-1.883913 -1.16681,-1.607431 -2.11125,-3.304463 -3.84168,-6.902975 -3.05959,-6.362583 -5.9691,-10.611645 -9.70229,-14.169261 -1.78796,-1.703876 -3.14262,-2.525618 -4.97048,-3.015109 -0.54018,-0.144657 -1.13628,-0.375799 -1.32467,-0.513648 -0.33532,-0.245366 -0.33399,-0.262614 0.0632,-0.820366 1.15003,-1.615073 1.37888,-6.46953 0.44036,-9.341241 -0.46923,-1.435752 -1.7061,-2.115938 -2.80667,-1.543451 -0.21453,0.11159 -0.79183,0.540422 -1.2829,0.952959 -1.14811,0.9645 -2.42196,1.879863 -2.61608,1.879863 -0.74972,0 2.10714,-2.642418 4.85813,-4.493471 1.58568,-1.066954 1.605,-1.064759 3.07543,0.34934 1.49494,1.437664 1.89434,1.681471 2.97247,1.81451 l 0.78995,0.09748 -0.72903,0.504077 c -1.00277,0.69335 -1.20913,1.291607 -1.15043,3.335209 0.0415,1.444963 -0.0319,1.98126 -0.4955,3.617951 -0.85364,3.013958 -0.82196,3.105191 1.59863,4.603558 1.81668,1.124548 2.74793,1.916401 4.26036,3.622637 2.44745,2.76109 4.23114,5.588431 7.82876,12.409386 1.43388,2.718593 2.9272,5.425039 3.31848,6.014325 1.36291,2.052587 3.03093,3.47345 4.09421,3.48757 0.82245,0.0109 -0.21338,0.38928 -2.24195,0.81891 -1.15075,0.24372 -2.52341,0.68077 -3.30735,1.05307 -1.468,0.69714 -1.94175,0.70489 -3.02098,0.0494 -0.72463,-0.44014 -1.46652,-1.50147 -1.46943,-2.102148 -0.004,-0.767082 -1.09612,-2.997546 -3.06257,-6.253191 -1.92487,-3.186787 -2.8281,-4.839967 -2.8281,-5.176264 0,-0.103475 0.31822,-0.02579 0.70717,0.172636 0.38894,0.198423 0.75055,0.360771 0.80357,0.360771 0.27081,0 0.0409,-0.786044 -0.34191,-1.16883 -0.9611,-0.961095 -2.02372,-0.247263 -1.79766,1.207598 0.65199,4.196072 3.80966,11.757218 5.85204,14.012898 0.56473,0.62371 1.02679,1.20032 1.02679,1.28136 0,0.41589 -1.66844,1.34784 -2.67858,1.49619 -0.34375,0.0505 -0.82589,0.0412 -1.07142,-0.0205 l 0,0 z m 1.51344,-1.31761 c -0.27595,-1.31185 -2.95641,-6.264677 -3.74433,-6.918598 -0.83393,-0.692102 -0.4415,0.744203 0.99991,3.659678 1.17563,2.37789 2.16004,3.83928 2.58618,3.83928 0.22225,0 0.25503,-0.12023 0.15824,-0.58036 l 0,0 z m -3.6563,-1.16843 c 0,-0.90557 -0.60802,-2.95067 -2.30216,-7.743456 -2.41574,-6.834205 -3.32225,-9.070764 -3.7949,-9.36288 -0.55566,-0.343418 0.57154,4.313484 2.53669,10.480014 1.18826,3.728682 1.86034,5.452202 2.55548,6.553362 0.60717,0.96182 1.00489,0.99069 1.00489,0.073 z m 9.18892,-1.63193 c 0.46681,-0.7553 -4.81003,-10.012136 -5.70739,-10.012136 -0.40155,0 0.007,1.103535 1.55533,4.196428 2.25715,4.510138 3.17034,5.982148 3.71118,5.982148 0.18591,0 0.38431,-0.0749 0.44088,-0.16644 z"
         style="fill:#ffffff" />
      <path
         transform="translate(320.46462,314.29598)"
         inkscape:connector-curvature="0"
         id="path3041"
         d="m 153.23706,99.015457 c 0.60106,-1.35879 0.30643,-2.380467 -1.29743,-4.499124 -1.0306,-1.361392 -2.29826,-3.795394 -3.54994,-6.816141 -1.60616,-3.876271 -2.92842,-6.057337 -5.04194,-8.316691 -0.59043,-0.631176 -0.96385,-1.146725 -0.82983,-1.145662 0.13403,0.0011 0.63816,0.1216 1.12029,0.267857 1.01732,0.308616 1.82246,0.343148 1.982,0.08501 0.0615,-0.09951 -0.0189,-0.630464 -0.1786,-1.179909 -0.15973,-0.549444 -0.25695,-1.032461 -0.21604,-1.073371 0.22331,-0.223313 2.81164,2.081375 7.41436,6.601864 7.93968,7.797821 9.13321,8.498686 8.92411,5.2404 -0.0853,-1.329627 -0.60231,-2.763734 -1.40025,-3.884345 -0.20748,-0.291371 -2.56052,-1.99385 -5.22899,-3.783287 -6.97516,-4.677439 -10.65533,-7.475895 -10.65533,-8.102463 0,-0.786826 2.9109,0.137231 13.35479,4.239447 4.50055,1.767757 6.53858,2.399387 7.0762,2.193082 0.26445,-0.10148 0.36892,-0.661018 0.29655,-1.588357 -0.0521,-0.667777 -1.84947,-2.136311 -3.87923,-3.169527 -3.2734,-1.666268 -6.52078,-2.737446 -12.11617,-3.996632 l -2.67857,-0.602786 1.51786,0.09916 c 4.30945,0.281527 9.72525,1.623734 14.73214,3.651089 1.79695,0.727608 3.8288,1.429411 4.13842,1.429411 0.43719,0 0.26652,-1.143575 -0.29784,-1.995598 -0.63827,-0.963609 -2.29785,-2.306297 -3.74353,-3.028713 -2.02014,-1.009476 -8.07105,-2.825712 -14.38276,-4.317116 -3.07045,-0.725523 -4.45043,-0.983716 -8.14557,-1.524026 -1.40821,-0.205913 -2.86649,-0.860482 -3.83078,-1.719502 -0.68685,-0.611866 -0.69441,-0.631634 -0.34508,-0.9031 0.89515,-0.695631 5.16127,-1.673611 7.34715,-1.684286 2.65556,-0.01297 9.56622,1.00785 17.64555,2.606539 2.27118,0.449409 3.4942,0.61004 4.14568,0.544493 1.84486,-0.185618 3.53713,-1.361856 2.89014,-2.008844 -0.46863,-0.468629 -4.54508,-1.025596 -15.42138,-2.107027 -2.48991,-0.247572 -2.46749,-0.248661 5.55804,-0.269983 4.43192,-0.01178 8.30358,-0.07052 8.6037,-0.130542 1.26254,-0.252507 1.66958,-1.442646 0.86595,-2.531908 -0.59568,-0.807399 -1.07239,-1.140666 -2.82566,-1.975398 -1.70604,-0.812249 -2.64846,-1.723481 -2.64846,-2.560821 0,-0.554752 0.30172,-0.768678 1.34258,-0.951932 1.06166,-0.186917 1.54693,-0.55165 1.4807,-1.112913 -0.0979,-0.829988 -2.41349,-1.73304 -7.46613,-2.911731 l -2.23215,-0.520719 2.17273,0.09717 c 3.15469,0.141087 5.97546,0.760235 8.06421,1.77006 1.424,0.688444 1.65875,0.859228 1.44583,1.051841 -0.13981,0.126473 -1.12437,0.936503 -2.18792,1.800068 -1.06354,0.863565 -1.86711,1.62967 -1.78571,1.702457 0.0814,0.07279 0.71051,0.268653 1.39801,0.435259 2.4125,0.584636 4.08618,1.704224 4.80167,3.212018 0.39468,0.831719 0.36149,1.224021 -0.14371,1.698631 -0.57806,0.543058 -0.69578,1.117975 -0.46075,2.250114 0.25584,1.232401 -0.0111,1.889633 -1.23092,3.030635 -1.25941,1.178032 -1.23533,1.523662 0.21445,3.078312 2.12352,2.277108 2.28359,2.780299 1.06798,3.357145 -0.51028,0.242143 -0.90933,0.283695 -1.86843,0.194555 -0.75552,-0.07022 -1.21958,-0.04667 -1.21958,0.06189 0,0.09638 0.50223,0.746322 1.11607,1.444316 2.24269,2.550156 2.57881,3.482518 1.56347,4.336875 -0.29412,0.247479 -0.67601,0.494797 -0.84866,0.549593 -0.55417,0.175886 -0.80535,0.824539 -0.77957,2.0132 0.0237,1.092486 0.006,1.14025 -0.55806,1.487334 -0.32039,0.197229 -0.88682,0.451316 -1.25872,0.564637 -0.37189,0.113322 -0.88469,0.399288 -1.13955,0.635481 -0.44784,0.415046 -0.45951,0.478378 -0.34799,1.889419 0.10062,1.273265 0.0696,1.534345 -0.24245,2.041483 -0.47801,0.776816 -0.58756,1.662791 -0.39176,3.168494 0.23551,1.811139 0.0294,2.294698 -1.39234,3.266041 -1.3615,0.930207 -1.54627,1.145284 -1.79642,2.091102 -0.31908,1.206396 -0.55719,1.508266 -1.86125,2.359682 -1.6402,1.070872 -2.31729,1.709711 -3.08234,2.908175 -1.1628,1.821547 -1.90036,2.376748 -1.27284,0.958122 l 0,0 z m 3.98084,-4.104761 c 0.43038,-0.165154 0.81157,-1.026986 0.81157,-1.834884 0,-1.868013 -3.85978,-7.436721 -8.125,-11.72238 -2.03435,-2.044097 -2.70899,-2.532563 -3.22459,-2.334711 -0.44553,0.170966 -0.21622,1.286218 0.66516,3.235043 1.76645,3.905832 2.16243,4.884723 2.46379,6.090657 0.3989,1.596255 0.99487,2.47177 2.92846,4.302073 1.99293,1.886473 3.4915,2.643755 4.48061,2.264202 l 0,0 z m 4.55266,-12.022647 c 0.40674,-0.257312 0.2813,-1.36781 -0.24421,-2.161901 -0.62351,-0.942179 -1.74323,-1.741488 -4.21117,-3.006115 -3.55304,-1.82066 -7.63623,-3.420457 -8.6922,-3.405607 -0.49949,0.007 -0.49595,0.0147 0.37703,0.81784 1.44097,1.325698 8.28192,5.902278 10.89362,7.287814 1.27835,0.678177 1.46937,0.725803 1.87693,0.467969 l 0,0 z m 5.97645,-14.939105 c 0.45571,-0.174871 0.32628,-0.715582 -0.2979,-1.244537 -1.41886,-1.2024 -6.78501,-3.330143 -11.25838,-4.464085 -3.94242,-0.99935 -13.88494,-2.458878 -14.67776,-2.154644 -0.41386,0.15881 -0.0953,0.549469 0.83491,1.024052 0.37487,0.191247 0.68159,0.386552 0.68159,0.434011 0,0.04746 -1.14509,0.04035 -2.54464,-0.01579 -2.59019,-0.10391 -3.13908,-0.0067 -2.937,0.519884 0.19871,0.517828 1.14669,0.815859 3.44961,1.08451 2.44998,0.285805 5.54376,0.871751 9.17489,1.737671 7.86155,1.874755 10.82785,2.504202 14.46428,3.069309 0.75711,0.117655 2.8123,0.124012 3.1104,0.0096 l 0,-4e-6 z"
         style="fill:#ffffff" />
      <path
         transform="translate(320.46462,314.29598)"
         inkscape:connector-curvature="0"
         id="path3043"
         d=""
         style="fill:#ffffff" />
      <path
         transform="translate(320.46462,314.29598)"
         inkscape:connector-curvature="0"
         id="path3045"
         d="m 129.81966,53.726978 c 0.0204,-1.017612 5.44628,-5.727725 6.27856,-5.450298 0.39584,0.131947 -5.60564,5.673513 -6.14438,5.673513 -0.0763,0 -0.13664,-0.100447 -0.13418,-0.223215 z"
         style="fill:#ffffff" />
      <path
         transform="translate(320.46462,314.29598)"
         inkscape:connector-curvature="0"
         id="path3047"
         d="m 138.38661,47.703805 c 0,-0.373531 2.9114,-1.794594 3.16241,-1.543582 0.19401,0.194011 -0.34175,0.637469 -1.42281,1.177682 -1.09777,0.548561 -1.7396,0.683561 -1.7396,0.3659 z"
         style="fill:#ffffff" />
      <path
         transform="translate(320.46462,314.29598)"
         inkscape:connector-curvature="0"
         id="path3049"
         d=""
         style="fill:#ffffff" />
      <path
         transform="translate(320.46462,314.29598)"
         inkscape:connector-curvature="0"
         id="path3051"
         d=""
         style="fill:#ffffff" />
      <path
         transform="translate(320.46462,314.29598)"
         inkscape:connector-curvature="0"
         id="path3053"
         d="m 146.15447,53.052817 c 1.67324,-0.558223 6.03017,-1.380996 8.42359,-1.590727 2.16284,-0.189527 5.18625,-0.258646 5.04289,-0.115287 -0.0581,0.05816 -10.53598,1.551995 -13.91291,1.983584 -0.44247,0.05655 -0.31209,-0.02451 0.44643,-0.27757 z"
         style="fill:#ffffff" />
      <path
         transform="translate(320.46462,314.29598)"
         inkscape:connector-curvature="0"
         id="path3055"
         d="m 135.52947,56.091491 c 2.00998,-1.06506 5.53571,-2.206035 5.53571,-1.791431 0,0.348326 -5.19289,2.331241 -6.07142,2.318387 -0.35869,-0.0052 -0.25339,-0.108822 0.53571,-0.526956 z"
         style="fill:#ffffff" />
      <path
         transform="translate(320.46462,314.29598)"
         inkscape:connector-curvature="0"
         id="path3057"
         d="m 152.56986,42.721516 c 0.0534,-0.08649 0.84168,-0.660926 1.75161,-1.276531 2.70281,-1.828551 3.38422,-2.611684 3.21955,-3.70015 -0.0824,-0.544977 -0.0552,-0.580357 0.44632,-0.580357 1.38299,0 1.1814,1.219104 -0.4756,2.876104 -0.92642,0.926417 -1.5613,1.365736 -2.90722,2.011718 -1.68067,0.806644 -2.23158,0.987842 -2.03466,0.669216 z"
         style="fill:#ffffff" />
      <path
         transform="translate(320.46462,314.29598)"
         inkscape:connector-curvature="0"
         id="path3059"
         d="m 168.21078,60.97659 c -0.003,-0.469344 -0.51959,-0.670637 -2.65835,-1.03654 -1.44995,-0.248061 -10.55386,-1.30877 -11.84106,-1.379618 -0.99217,-0.05461 6.15199,-0.275484 9.72875,-0.300781 4.18884,-0.02963 4.58935,-0.177469 4.58935,-1.694091 0,-0.896677 -0.86074,-1.762791 -2.78676,-2.804161 -2.00836,-1.085885 -2.92753,-1.918748 -2.92753,-2.652637 0,-0.531256 0.32736,-0.75031 1.51786,-1.01569 0.7196,-0.160408 1.16072,-0.572331 1.16072,-1.083895 0,-0.765209 -1.5169,-1.449331 -5.71429,-2.577152 l -2.58929,-0.69573 1.51786,0.0972 c 2.89022,0.185079 5.34264,0.78789 7.46545,1.835027 l 1.30473,0.643597 -0.76885,0.631538 c -1.96067,1.610505 -3.24511,2.798828 -3.19689,2.95765 0.029,0.09564 0.87826,0.457992 1.88716,0.805229 2.021,0.695571 3.19675,1.467784 3.91918,2.574047 0.57944,0.88729 0.57946,1.336101 1e-4,2.188468 -0.42609,0.626871 -0.45239,0.77779 -0.35143,2.016859 0.0654,0.802574 0.0364,1.446628 -0.0724,1.607143 -0.14987,0.221124 -0.18203,0.200806 -0.18428,-0.11646 l 0,0 z"
         style="fill:#ffffff" />
      <path
         transform="translate(320.46462,314.29598)"
         inkscape:connector-curvature="0"
         id="path3061"
         d="m 141.77947,38.853933 c 0,-0.21181 2.7126,-1.380137 4.73214,-2.038149 3.54741,-1.155827 6.65524,-1.672467 7.67098,-1.275208 0.24556,0.09604 0.01,0.172195 -0.79166,0.255989 -1.5748,0.164599 -4.16895,0.872234 -7.72737,2.107883 -2.70951,0.940867 -3.88409,1.227998 -3.88409,0.949485 z"
         style="fill:#ffffff" />
    </g>
  </g>
</svg>
